<?xml version="1.0" encoding="UTF-8" standalone="no"?>
<!-- Created with Inkscape (http://www.inkscape.org/) -->

<svg
   width="256"
   height="256"
   viewBox="0 0 67.733332 67.733333"
   version="1.1"
   id="svg1"
   xml:space="preserve"
   inkscape:version="1.3.2 (1:1.3.2+202404261509+091e20ef0f)"
   sodipodi:docname="nextfur.svg"
   xmlns:inkscape="http://www.inkscape.org/namespaces/inkscape"
   xmlns:sodipodi="http://sodipodi.sourceforge.net/DTD/sodipodi-0.dtd"
   xmlns:xlink="http://www.w3.org/1999/xlink"
   xmlns="http://www.w3.org/2000/svg"
   xmlns:svg="http://www.w3.org/2000/svg"><sodipodi:namedview
     id="namedview1"
     pagecolor="#ffffff"
     bordercolor="#000000"
     borderopacity="0.25"
     inkscape:showpageshadow="2"
     inkscape:pageopacity="0.0"
     inkscape:pagecheckerboard="0"
     inkscape:deskcolor="#d1d1d1"
     inkscape:document-units="px"
     inkscape:zoom="2.8792368"
     inkscape:cx="161.50113"
     inkscape:cy="167.75279"
     inkscape:window-width="1854"
     inkscape:window-height="1011"
     inkscape:window-x="0"
     inkscape:window-y="0"
     inkscape:window-maximized="1"
     inkscape:current-layer="layer1-5" /><defs
     id="defs1"><linearGradient
       id="linearGradient196"
       inkscape:collect="always"><stop
         style="stop-color:#55ddff;stop-opacity:1;"
         offset="0"
         id="stop196" /><stop
         style="stop-color:#5c4de0;stop-opacity:1;"
         offset="0.47232535"
         id="stop198" /><stop
         style="stop-color:#ed82ff;stop-opacity:1;"
         offset="1"
         id="stop197" /></linearGradient><linearGradient
       inkscape:collect="always"
       xlink:href="#linearGradient196"
       id="linearGradient197"
       x1="511.92288"
       y1="-95.786285"
       x2="544.77557"
       y2="-67.185249"
       gradientUnits="userSpaceOnUse" /><filter
       inkscape:collect="always"
       style="color-interpolation-filters:sRGB"
       id="filter198"
       x="-0.55230716"
       y="-0.46632137"
       width="2.1046143"
       height="1.9326427"><feGaussianBlur
         inkscape:collect="always"
         stdDeviation="8.7737512"
         id="feGaussianBlur198" /></filter></defs><g
     inkscape:label="Camada 1"
     inkscape:groupmode="layer"
     id="layer1"><g
       inkscape:label="Camada 1"
       id="layer1-5"
       transform="translate(-493.36902,123.62969)"><rect
         style="fill:#170b28;fill-opacity:1;stroke:none;stroke-width:0.781136;stroke-linecap:round;stroke-linejoin:round;stroke-dasharray:none;stroke-opacity:1"
         id="rect1"
         width="67.73333"
         height="67.73333"
         x="493.36902"
         y="55.896362"
         ry="0"
         transform="scale(1,-1)"
         inkscape:export-filename="LogoFiles\PNG\type1.png"
         inkscape:export-xdpi="96"
         inkscape:export-ydpi="96" /><path
         id="path198"
         style="font-weight:bold;font-size:14.1111px;line-height:1.2;font-family:'Playfair Display';-inkscape-font-specification:'Playfair Display Bold';text-align:center;text-anchor:middle;fill:url(#linearGradient197);fill-opacity:1;stroke:none;stroke-width:0.581853;stroke-linecap:square;stroke-dasharray:none;stroke-opacity:1;filter:url(#filter198)"
         d="m 529.27549,-112.34081 v 14.480653 l -4.96498,4.965603 h -7.52342 l 3.55588,-3.552634 v -5.654192 z m 0,0 -9.09141,4.11506 -5.43128,9.547731 h -5.65986 l 5.65986,5.783465 h -8.10277 l 7.45497,7.455002 v 7.454961 h 7.45562 v 5.499781 h 5.49981 l 5.29953,5.299561 h 3.74094 l -1.50204,-3.820079 4.38504,-2.751109 -1.66403,-6.612671 0.47827,-2.016119 -10.23121,-8.541556 10.83007,6.015741 5.0252,2.791245 -4.44711,-8.759222 h 3.4956 l 0.037,-3.532638 2.26787,-8.463683 v -6.87563 l -3.50369,12.487146 -4.36935,4.36927 V -99.1651 l 2.20378,-6.52411 5.66926,-4.06176 h -5.83489 l -4.73081,2.73227 v 14.287372 z m 6.82541,45.155561 h 4.53567 l -1.65267,-6.570586 -10e-4,5.524876 z m -11.79039,-15.092039 h 7.14807 v 4.292697 z" /><path
         style="opacity:0.54267724;fill:#170b28;fill-opacity:1;stroke-width:0.264583"
         d="m 529.27549,-112.34081 -11.14753,7.72955 -1.34087,11.716705 h 7.52342 12.59201 l 4.36935,-4.369269 3.50369,-12.487146 -5.66926,4.06176 -2.20378,6.52411 v 6.270545 h -12.59201 l 4.96498,-4.965602 z"
         id="path199" /><path
         style="opacity:0.54267724;fill:#170b28;fill-opacity:1;stroke-width:0.264583"
         d="m 524.31051,-82.277289 h 7.14807 l 7.52532,8.521454 -10e-4,5.524875 -2.882,1.04571 z"
         id="path200" /><path
         id="path2"
         style="font-weight:bold;font-size:14.1111px;line-height:1.2;font-family:'Playfair Display';-inkscape-font-specification:'Playfair Display Bold';text-align:center;text-anchor:middle;fill:url(#linearGradient197);fill-opacity:1;stroke:none;stroke-width:0.581853;stroke-linecap:square;stroke-dasharray:none;stroke-opacity:1"
         d="m 529.27549,-112.34081 v 14.480653 l -4.96498,4.965603 h -7.52342 l 3.55588,-3.552634 v -5.654192 z m 0,0 -9.09141,4.11506 -5.43128,9.547731 h -5.65986 l 5.65986,5.783465 h -8.10277 l 7.45497,7.455002 v 7.454961 h 7.45562 v 5.499781 h 5.49981 l 5.29953,5.299561 h 3.74094 l -1.50204,-3.820079 4.38504,-2.751109 -1.66403,-6.612671 0.47827,-2.016119 -10.23121,-8.541556 10.83007,6.015741 5.0252,2.791245 -4.44711,-8.759222 h 3.4956 l 0.037,-3.532638 2.26787,-8.463683 v -6.87563 l -3.50369,12.487146 -4.36935,4.36927 V -99.1651 l 2.20378,-6.52411 5.66926,-4.06176 h -5.83489 l -4.73081,2.73227 v 14.287372 z m 6.82541,45.155561 h 4.53567 l -1.65267,-6.570586 -10e-4,5.524876 z m -11.79039,-15.092039 h 7.14807 v 4.292697 z" /><path
         style="opacity:0.46879859;fill:#170b28;fill-opacity:1;stroke-width:0.264583"
         d="m 527.56693,-90.926783 10.23121,8.541557 5.62406,0.26543 z"
         id="path201" /></g></g></svg>
