<?xml version="1.0" encoding="UTF-8" standalone="no"?>
<!-- Created with Inkscape (http://www.inkscape.org/) -->

<svg
   width="1200"
   height="630"
   viewBox="0 0 317.49999 166.6875"
   version="1.1"
   id="svg1"
   xml:space="preserve"
   inkscape:version="1.3.2 (1:1.3.2+202404261509+091e20ef0f)"
   sodipodi:docname="og.svg"
   inkscape:export-filename="og.png"
   inkscape:export-xdpi="96"
   inkscape:export-ydpi="96"
   xmlns:inkscape="http://www.inkscape.org/namespaces/inkscape"
   xmlns:sodipodi="http://sodipodi.sourceforge.net/DTD/sodipodi-0.dtd"
   xmlns:xlink="http://www.w3.org/1999/xlink"
   xmlns="http://www.w3.org/2000/svg"
   xmlns:svg="http://www.w3.org/2000/svg"><sodipodi:namedview
     id="namedview1"
     pagecolor="#ffffff"
     bordercolor="#000000"
     borderopacity="0.25"
     inkscape:showpageshadow="2"
     inkscape:pageopacity="0.0"
     inkscape:pagecheckerboard="0"
     inkscape:deskcolor="#d1d1d1"
     inkscape:document-units="px"
     inkscape:zoom="0.90509668"
     inkscape:cx="529.77766"
     inkscape:cy="385.59417"
     inkscape:window-width="1854"
     inkscape:window-height="1011"
     inkscape:window-x="0"
     inkscape:window-y="0"
     inkscape:window-maximized="1"
     inkscape:current-layer="svg1"
     showgrid="false" /><defs
     id="defs1"><linearGradient
       id="linearGradient40"
       inkscape:collect="always"><stop
         style="stop-color:#14142a;stop-opacity:0.58329099;"
         offset="0"
         id="stop40" /><stop
         style="stop-color:#2a3693;stop-opacity:0.79215688;"
         offset="0.5"
         id="stop69" /><stop
         style="stop-color:#23c7d2;stop-opacity:1;"
         offset="1"
         id="stop41" /></linearGradient><linearGradient
       id="linearGradient32"
       inkscape:collect="always"><stop
         style="stop-color:#5a6edc;stop-opacity:0;"
         offset="0"
         id="stop34" /><stop
         style="stop-color:#5ad7dc;stop-opacity:1;"
         offset="1"
         id="stop33" /></linearGradient><linearGradient
       id="linearGradient28"
       inkscape:collect="always"><stop
         style="stop-color:#38dbf2;stop-opacity:1;"
         offset="0"
         id="stop28" /><stop
         style="stop-color:#4db6f3;stop-opacity:1;"
         offset="0.24604484"
         id="stop31" /><stop
         style="stop-color:#5a8ef5;stop-opacity:1;"
         offset="0.40536112"
         id="stop30" /><stop
         style="stop-color:#9088f9;stop-opacity:1;"
         offset="0.66154259"
         id="stop32" /><stop
         style="stop-color:#cb82ff;stop-opacity:1;"
         offset="0.89067394"
         id="stop29" /></linearGradient><linearGradient
       id="linearGradient13"
       inkscape:collect="always"><stop
         style="stop-color:#5a7fe2;stop-opacity:1;"
         offset="0"
         id="stop14" /><stop
         style="stop-color:#5a7fe2;stop-opacity:0;"
         offset="1"
         id="stop15" /></linearGradient><radialGradient
       inkscape:collect="always"
       xlink:href="#linearGradient13"
       id="radialGradient15"
       cx="-1.4991384e-15"
       cy="-75.40625"
       fx="-1.4991384e-15"
       fy="-75.40625"
       r="158.75"
       gradientTransform="matrix(2,0,0,0.90626627,6.9423344e-8,68.338141)"
       gradientUnits="userSpaceOnUse" /><linearGradient
       inkscape:collect="always"
       xlink:href="#linearGradient28"
       id="linearGradient29"
       x1="156.71244"
       y1="107.26508"
       x2="213.16361"
       y2="107.26508"
       gradientUnits="userSpaceOnUse"
       gradientTransform="matrix(1.583445,0,0,1.583445,-228.99249,-28.49224)" /><linearGradient
       inkscape:collect="always"
       xlink:href="#linearGradient32"
       id="linearGradient34"
       x1="195.50789"
       y1="40.207676"
       x2="329.30528"
       y2="40.207676"
       gradientUnits="userSpaceOnUse"
       gradientTransform="translate(-11.80528)" /><linearGradient
       inkscape:collect="always"
       xlink:href="#linearGradient32"
       id="linearGradient35"
       gradientUnits="userSpaceOnUse"
       gradientTransform="translate(-11.80528,14.303031)"
       x1="195.50789"
       y1="40.207676"
       x2="329.30528"
       y2="40.207676" /><linearGradient
       inkscape:collect="always"
       xlink:href="#linearGradient32"
       id="linearGradient36"
       gradientUnits="userSpaceOnUse"
       gradientTransform="translate(-11.80528,29.362208)"
       x1="195.50789"
       y1="40.207676"
       x2="329.30528"
       y2="40.207676" /><linearGradient
       inkscape:collect="always"
       xlink:href="#linearGradient32"
       id="linearGradient37"
       gradientUnits="userSpaceOnUse"
       gradientTransform="translate(-11.80528,42.909092)"
       x1="195.50789"
       y1="40.207676"
       x2="329.30528"
       y2="40.207676" /><linearGradient
       inkscape:collect="always"
       xlink:href="#linearGradient32"
       id="linearGradient38"
       gradientUnits="userSpaceOnUse"
       gradientTransform="translate(-11.80528,57.968269)"
       x1="195.50789"
       y1="40.207676"
       x2="329.30528"
       y2="40.207676" /><linearGradient
       inkscape:collect="always"
       xlink:href="#linearGradient40"
       id="linearGradient41"
       x1="317.5"
       y1="116.05834"
       x2="235.1369"
       y2="36.444847"
       gradientUnits="userSpaceOnUse"
       gradientTransform="translate(0,0.62573857)" /><filter
       inkscape:collect="always"
       style="color-interpolation-filters:sRGB"
       id="filter69"
       x="-0.16029177"
       y="-0.2083989"
       width="1.3205835"
       height="1.4167978"><feGaussianBlur
         inkscape:collect="always"
         stdDeviation="12.279725"
         id="feGaussianBlur69" /></filter><linearGradient
       inkscape:collect="always"
       xlink:href="#linearGradient40"
       id="linearGradient70"
       gradientUnits="userSpaceOnUse"
       gradientTransform="rotate(116.45601,160.53352,16.893904)"
       x1="317.5"
       y1="116.05834"
       x2="235.1369"
       y2="36.444847" /><filter
       inkscape:collect="always"
       style="color-interpolation-filters:sRGB"
       id="filter70"
       x="-0.22163248"
       y="-0.26320821"
       width="1.443265"
       height="1.5264164"><feGaussianBlur
         inkscape:collect="always"
         stdDeviation="18.798987"
         id="feGaussianBlur70" /></filter><linearGradient
       inkscape:collect="always"
       xlink:href="#linearGradient40"
       id="linearGradient71"
       gradientUnits="userSpaceOnUse"
       gradientTransform="rotate(116.45601,160.53352,16.893904)"
       x1="317.5"
       y1="116.05834"
       x2="235.1369"
       y2="36.444847" /></defs><rect
     style="opacity:1;fill:#141428;fill-opacity:1;stroke-width:1.05833;fill-rule:nonzero"
     id="rect5"
     width="317.5"
     height="166.6875"
     x="0"
     y="0" /><path
     id="path69"
     style="font-weight:bold;font-size:14.1111px;line-height:1.2;font-family:'Playfair Display';-inkscape-font-specification:'Playfair Display Bold';text-align:center;text-anchor:middle;fill:url(#linearGradient41);fill-opacity:0.583291;stroke:none;stroke-width:0.482453;stroke-linecap:square;stroke-dasharray:none;stroke-opacity:1;filter:url(#filter69)"
     d="m 203.04956,15.348612 v 23.022251 l 7.89379,7.894635 h 11.96131 l -5.65339,-5.64794 v -8.989717 z m 0,0 14.45422,6.542432 8.63504,15.179542 h 8.99808 l -8.99808,9.194912 h 12.88217 L 227.16856,58.117921 V 69.970349 H 215.3153 v 8.743903 h -2.74083 -6.00305 l -8.42565,8.425215 h -5.94734 l 2.38782,-6.073409 -6.97125,-4.373626 2.64536,-10.513201 -0.76049,-3.205256 16.26624,-13.579851 -17.21809,9.563852 -7.98928,4.437698 7.07008,-13.925747 h -5.55749 l -0.0586,-5.616538 -3.60561,-13.45589 V 19.466368 l 5.57008,19.852592 6.94696,6.946538 V 36.29628 l -3.50386,-10.372489 -9.01317,-6.457423 h 9.27658 l 7.52109,4.343895 v 22.714876 z m -10.85113,71.790855 h -7.21122 l 2.62779,-10.446199 0.002,8.783682 z m 20.37604,-8.425215 11.91691,12.802191 7.82763,-4.906722 -0.93846,18.686319 -30.6405,17.69049 -15.97854,15.97856 v 13.83738 l -4.39918,-0.7542 -3.71616,-7.54245 1.7605,-9.76067 14.9417,-17.5435 21.27261,-16.96433 z m 19.74454,7.895469 -7.00559,1.119374 -7.9407,-8.088945 -2.05742,-9.669801 14.18582,2.335059 -2.33256,-14.187487 15.83116,-11.852423 -6.18438,-3.451907 10.57558,-2.585488 15.05182,3.815828 11.40101,-0.09465 25.99591,6.317967 9.5869,18.520068 -19.80988,27.686931 -3.79907,17.165343 3.57964,10.74186 3.55617,0.0352 -22.60012,31.86079 h -14.06896 l 1.18804,-4.43475 6.35859,-3.67095 3.01346,0.80739 14.26872,-21.66544 -11.18113,-27.963297 4.63159,-25.165112 -5.16343,7.042024 -18.9066,2.627776 7.94239,27.107779 v 3.87486 l 13.0882,22.67007 -4.22202,7.31256 -15.70803,-27.20702 z m 77.10755,-17.822396 11.87,26.138738 19.48701,22.137387 1.1692,-2.08839 18.55399,27.02233 -1.07666,14.76915 -3.77603,-0.48912 -2.40459,-2.76764 -1.36058,-6.39418 2.16044,-4.78695 -21.62231,-23.91048 -29.85406,-23.0612 -3.15164,-9.239714 z m -9.5869,-18.520069 15.32571,5.869891 14.79846,15.388093 8.10612,12.686197 4.92137,18.965633 -17.70849,-9.700786 z M 210.94335,63.145251 H 199.5788 v 6.825098 z" /><rect
     style="opacity:0.629953;fill:url(#radialGradient15);fill-opacity:1;fill-rule:nonzero;stroke-width:1.05833"
     id="rect13"
     width="317.5"
     height="166.6875"
     x="0"
     y="0" /><path
     id="path2-9"
     style="font-weight:bold;font-size:14.1111px;line-height:1.2;font-family:'Playfair Display';-inkscape-font-specification:'Playfair Display Bold';text-align:center;text-anchor:middle;fill:url(#linearGradient41);fill-opacity:0.583291;stroke:none;stroke-width:0.482453;stroke-linecap:square;stroke-dasharray:none;stroke-opacity:1"
     d="m 203.04956,15.348612 v 23.022251 l 7.89379,7.894635 h 11.96131 l -5.65339,-5.64794 v -8.989717 z m 0,0 14.45422,6.542432 8.63504,15.179542 h 8.99808 l -8.99808,9.194912 h 12.88217 L 227.16856,58.117921 V 69.970349 H 215.3153 v 8.743903 h -2.74083 -6.00305 l -8.42565,8.425215 h -5.94734 l 2.38782,-6.073409 -6.97125,-4.373626 2.64536,-10.513201 -0.76049,-3.205256 16.26624,-13.579851 -17.21809,9.563852 -7.98928,4.437698 7.07008,-13.925747 h -5.55749 l -0.0586,-5.616538 -3.60561,-13.45589 V 19.466368 l 5.57008,19.852592 6.94696,6.946538 V 36.29628 l -3.50386,-10.372489 -9.01317,-6.457423 h 9.27658 l 7.52109,4.343895 v 22.714876 z m -10.85113,71.790855 h -7.21122 l 2.62779,-10.446199 0.002,8.783682 z m 20.37604,-8.425215 11.91691,12.802191 7.82763,-4.906722 -0.93846,18.686319 -30.6405,17.69049 -15.97854,15.97856 v 13.83738 l -4.39918,-0.7542 -3.71616,-7.54245 1.7605,-9.76067 14.9417,-17.5435 21.27261,-16.96433 z m 19.74454,7.895469 -7.00559,1.119374 -7.9407,-8.088945 -2.05742,-9.669801 14.18582,2.335059 -2.33256,-14.187487 15.83116,-11.852423 -6.18438,-3.451907 10.57558,-2.585488 15.05182,3.815828 11.40101,-0.09465 25.99591,6.317967 9.5869,18.520068 -19.80988,27.686931 -3.79907,17.165343 3.57964,10.74186 3.55617,0.0352 -22.60012,31.86079 h -14.06896 l 1.18804,-4.43475 6.35859,-3.67095 3.01346,0.80739 14.26872,-21.66544 -11.18113,-27.963297 4.63159,-25.165112 -5.16343,7.042024 -18.9066,2.627776 7.94239,27.107779 v 3.87486 l 13.0882,22.67007 -4.22202,7.31256 -15.70803,-27.20702 z m 77.10755,-17.822396 11.87,26.138738 19.48701,22.137387 1.1692,-2.08839 18.55399,27.02233 -1.07666,14.76915 -3.77603,-0.48912 -2.40459,-2.76764 -1.36058,-6.39418 2.16044,-4.78695 -21.62231,-23.91048 -29.85406,-23.0612 -3.15164,-9.239714 z m -9.5869,-18.520069 15.32571,5.869891 14.79846,15.388093 8.10612,12.686197 4.92137,18.965633 -17.70849,-9.700786 z M 210.94335,63.145251 H 199.5788 v 6.825098 z" /><g
     id="g38"
     transform="rotate(180,158.58506,61.957655)"><path
       style="opacity:1;fill:none;fill-opacity:1;fill-rule:nonzero;stroke:url(#linearGradient34);stroke-width:1.05833;stroke-dasharray:none;stroke-opacity:1"
       d="m 183.70261,26.433811 h 78.21835 l 27.54772,27.547731 H 317.5"
       id="path32"
       sodipodi:nodetypes="cccc" /><path
       style="opacity:1;fill:none;fill-opacity:1;fill-rule:nonzero;stroke:url(#linearGradient35);stroke-width:1.05833;stroke-dasharray:none;stroke-opacity:1"
       d="m 183.70261,40.736842 h 72.55625 l 27.54772,27.547731 H 317.5"
       id="path34" /><path
       style="opacity:1;fill:none;fill-opacity:1;fill-rule:nonzero;stroke:url(#linearGradient36);stroke-width:1.05833;stroke-dasharray:none;stroke-opacity:1"
       d="m 183.70261,55.796019 h 72.55625 l 0.11965,27.547731 H 317.5"
       id="path35"
       sodipodi:nodetypes="cccc" /><path
       style="opacity:1;fill:none;fill-opacity:1;fill-rule:nonzero;stroke:url(#linearGradient37);stroke-width:1.05833;stroke-dasharray:none;stroke-opacity:1"
       d="m 183.70261,69.342903 h 47.58407 l 25.09183,27.547731 H 317.5"
       id="path36"
       sodipodi:nodetypes="cccc" /><path
       style="opacity:1;fill:none;fill-opacity:1;fill-rule:nonzero;stroke:url(#linearGradient38);stroke-width:1.05833;stroke-dasharray:none;stroke-opacity:1"
       d="m 183.70261,84.40208 h 42.46891 l 25.09183,27.54773 H 317.5"
       id="path37"
       sodipodi:nodetypes="cccc" /></g><g
     inkscape:label="Camada 1"
     inkscape:groupmode="layer"
     id="layer1" /><text
     xml:space="preserve"
     style="font-weight:bold;font-size:9.76035px;font-family:'Chakra Petch';-inkscape-font-specification:'Chakra Petch Bold';opacity:1;fill:#ffffff;fill-opacity:1;fill-rule:nonzero;stroke:none;stroke-width:1.62673;stroke-dasharray:none;stroke-opacity:1"
     x="234.26643"
     y="125.76021"
     id="text25"><tspan
       sodipodi:role="line"
       id="tspan25"
       style="font-style:normal;font-variant:normal;font-weight:normal;font-stretch:normal;font-family:'Chakra Petch';-inkscape-font-specification:'Chakra Petch';fill:#ffffff;fill-opacity:1;stroke-width:1.62673"
       x="234.26643"
       y="125.76021">By furries,</tspan></text><text
     xml:space="preserve"
     style="font-weight:bold;font-size:9.76035px;font-family:'Chakra Petch';-inkscape-font-specification:'Chakra Petch Bold';opacity:1;fill:#ffffff;fill-opacity:1;fill-rule:nonzero;stroke:none;stroke-width:1.62673;stroke-dasharray:none;stroke-opacity:1"
     x="218.01547"
     y="133.19594"
     id="text26"><tspan
       sodipodi:role="line"
       id="tspan26"
       style="fill:#ffffff;fill-opacity:1;stroke-width:1.62673"
       x="218.01547"
       y="133.19594">for the world.</tspan></text><g
     inkscape:label="Camada 1"
     id="layer1-0"
     transform="matrix(0.92507144,0,0,0.92507144,-442.63661,203.62674)"
     style="opacity:1;fill:#ffffff;fill-opacity:1"><path
       id="path2"
       style="font-weight:bold;font-size:14.1111px;line-height:1.2;font-family:'Playfair Display';-inkscape-font-specification:'Playfair Display Bold';text-align:center;text-anchor:middle;fill:#ffffff;fill-opacity:1;stroke:none;stroke-width:0.559868;stroke-linecap:square;stroke-dasharray:none;stroke-opacity:1"
       d="m 529.14087,-111.48773 v 13.933507 l -4.77738,4.77798 h -7.23915 l 3.42153,-3.4184 v -5.440557 z m 0,0 -8.74789,3.95957 -5.22606,9.186977 h -5.44601 l 5.44601,5.56494 h -7.79662 l 7.17329,7.17332 v 7.17328 h 7.17391 v 5.291976 h 5.29201 l 5.09929,5.09932 h 3.59959 l -1.44528,-3.675739 4.21935,-2.647161 -1.60116,-6.362816 0.4602,-1.93994 -9.84463,-8.21882 10.42086,5.78844 4.83534,2.68578 -4.27909,-8.42826 h 3.36352 l 0.0356,-3.39916 2.18219,-8.143897 v -6.61583 l -3.37131,12.015327 -4.20426,4.20418 v -6.033617 l 2.12051,-6.2776 5.45506,-3.90829 h -5.61443 l -4.55206,2.62903 v 13.747537 z m 6.56752,43.449383 h 4.36429 l -1.59022,-6.32232 -10e-4,5.316121 z m -11.3449,-14.521796 h 6.87799 v 4.1305 z"
       inkscape:export-filename="LogoFiles\PNG\type3.png"
       inkscape:export-xdpi="96"
       inkscape:export-ydpi="96" /><g
       id="g21"
       style="font-weight:600;font-size:9.08504px;line-height:1;font-family:Unbounded;-inkscape-font-specification:'Unbounded Semi-Bold';text-align:start;text-anchor:start;fill:#ffffff;fill-opacity:1;stroke-width:1.70344;stroke-linecap:square"
       aria-label="NEXTFUR"
       transform="matrix(2.2546542,0,0,2.2546542,-46.498388,-480.1701)"><path
         id="path20"
         style="font-weight:normal;-inkscape-font-specification:Unbounded;fill:#ffffff;fill-opacity:1"
         d="m 280.13877,171.69681 2.30873,2.92495 h -7.77992 l 1.02924,0.99934 h 6.71525 l -2.28161,2.89007 h 1.40739 l 1.98983,-2.52078 0.69594,-0.88142 -0.70425,-0.89138 -1.98983,-2.52078 z m 5.37098,0 -0.98716,1.25015 v 1.78276 l 2.39455,-3.03291 z m -20.35614,5.6e-4 5.46012,6.8138 h 1.52642 l -5.42358,-6.8138 z m 0,0 v 6.8138 h 1.16323 v -3.99682 z m 6.98654,6.8138 v -3.42323 -3.39057 h -1.16267 v 3.96636 z m 15.07208,-6.8138 v 1.0536 h 2.81643 4.01564 v -1.0536 z m 2.81643,1.0536 v 5.7602 h 1.19921 v -4.5859 z m -16.5985,-1.05028 0.007,3.40662 -0.007,3.40718 h 5.9418 v -1.03588 h -5.91578 l 1.20088,-1.24018 v -2.2041 l -1.20863,-1.29831 h 5.87813 v -1.03533 z m 11.09243,3.78809 v 1.76117 5.5e-4 l 0.99547,1.26067 h 1.39077 z" /><path
         id="path21"
         style="font-weight:800;-inkscape-font-specification:'Unbounded Ultra-Bold';fill:#ffffff;fill-opacity:1"
         d="m 309.76914,164.67816 -0.47836,0.51435 -0.4778,0.51489 h 0.95616 0.9556 l -0.4778,-0.51489 z m 0.9556,1.02924 v 0.95561 0.9556 l 0.51435,-0.4778 0.51489,-0.4778 -0.51489,-0.47781 z m 0,1.91121 h -0.9556 -0.95616 l 0.4778,0.5149 0.47836,0.51434 0.4778,-0.51434 z m -0.9556,1.02924 -0.4778,0.44403 -0.47836,0.44348 0.47836,0.44347 0.4778,0.44403 v -0.8875 z m -0.95616,-1.02924 -2.04242,2.04298 1.01761,1.01761 1.01817,1.01817 z m -1.02481,3.06059 -0.52376,0.48666 -0.5243,0.48666 0.5243,0.48666 0.52376,0.48666 v -0.97332 z m 0,1.94664 -1.09734,1.00045 v 1.78055 l -2.7893,3.09104 h 1.39022 1.51424 l 2.00145,-2.02305 v -4.77746 z m -3.88664,5.87204 v -4.81622 l -2.11661,-1.98429 0.0327,6.81712 1.63881,-0.0166 z m -9.12142,-6.80051 v 6.8138 h 2.11716 v -3.5096 -1.53307 h 4.05163 v -1.77113 z m 2.11716,3.3042 1.73626,1.77168 h 2.32478 v -1.77168 z m 13.00973,-3.3042 v 6.8138 h 2.11661 V 173.711 h 2.74556 l 0.001,1.73293 1.99149,-1.98705 0.002,-1.75951 z" /></g></g><g
     inkscape:label="Camada 1"
     id="g68"
     transform="matrix(3.1441681,0,0,3.1441681,-1774.4515,419.86636)"
     style="opacity:1;fill:#ffffff;fill-opacity:1"><path
       id="path65"
       style="font-weight:bold;font-size:14.1111px;line-height:1.2;font-family:'Playfair Display';-inkscape-font-specification:'Playfair Display Bold';text-align:center;text-anchor:middle;fill:#ffffff;fill-opacity:1;stroke:none;stroke-width:0.559868;stroke-linecap:square;stroke-dasharray:none;stroke-opacity:1"
       d="m 529.14087,-111.48773 v 13.933507 l -4.77738,4.77798 h -7.23915 l 3.42153,-3.4184 v -5.440557 z m 0,0 -8.74789,3.95957 -5.22606,9.186977 h -5.44601 l 5.44601,5.56494 h -7.79662 l 7.17329,7.17332 v 7.17328 h 7.17391 v 5.291976 h 5.29201 l 5.09929,5.09932 h 3.59959 l -1.44528,-3.675739 4.21935,-2.647161 -1.60116,-6.362816 0.4602,-1.93994 -9.84463,-8.21882 10.42086,5.78844 4.83534,2.68578 -4.27909,-8.42826 h 3.36352 l 0.0356,-3.39916 2.18219,-8.143897 v -6.61583 l -3.37131,12.015327 -4.20426,4.20418 v -6.033617 l 2.12051,-6.2776 5.45506,-3.90829 h -5.61443 l -4.55206,2.62903 v 13.747537 z m 6.56752,43.449383 h 4.36429 l -1.59022,-6.32232 -10e-4,5.316121 z m -11.3449,-14.521796 h 6.87799 v 4.1305 z"
       inkscape:export-filename="LogoFiles\PNG\type3.png"
       inkscape:export-xdpi="96"
       inkscape:export-ydpi="96" /></g><path
     id="path70"
     style="font-weight:bold;font-size:14.1111px;line-height:1.2;font-family:'Playfair Display';-inkscape-font-specification:'Playfair Display Bold';text-align:center;text-anchor:middle;mix-blend-mode:normal;fill:url(#linearGradient70);fill-opacity:0.583291;stroke:none;stroke-width:0.482453;stroke-linecap:square;stroke-dasharray:none;stroke-opacity:1;filter:url(#filter70)"
     d="m 143.53585,55.924739 -20.61128,-10.256656 -10.58465,3.549983 -5.32889,10.708682 7.57511,-2.545132 8.04828,4.005014 z m 0,0 -12.29679,10.025803 -17.4369,0.968104 -4.00874,8.055771 -4.22325,-12.152201 -5.73914,11.533106 -5.33081,-15.891584 -10.611206,-5.280382 5.280756,-10.611947 -7.828216,-3.895501 1.221069,-2.453801 2.674422,-5.374391 -3.789182,-11.29681 2.649602,-5.324515 4.373585,4.843527 7.02137,-4.292701 8.23369,7.052072 3.20839,0.747126 4.91095,20.612753 -0.89146,-19.675752 -0.41366,-9.129657 9.31761,12.533745 2.47592,-4.975491 5.05446,2.449764 13.65308,2.766722 9.78639,4.869934 -20.2551,-3.857777 -9.31401,3.124696 8.9252,4.441392 10.84726,1.484129 9.79664,-5.192431 -4.13281,8.305106 -7.23972,4.798205 -20.33609,-10.119717 z M 84.097465,14.226391 87.31014,7.7703539 95.49167,14.776845 87.62695,10.865412 Z M 82.562623,36.222107 65.79201,41.187527 66.697592,50.381418 50.38626,41.216284 48.199044,5.9032587 41.01242,-15.520573 l -12.388283,-6.164699 2.635098,-3.602479 8.408169,0.03325 7.954178,5.924616 9.049602,21.1927701 5.710596,26.6026599 z m -15.865031,14.159311 2.118915,-6.770634 10.77951,-3.505413 9.573753,2.466038 -8.41046,11.65994 13.74091,4.232389 3.55824,19.453648 5.84562,-3.99887 -2.3968,10.619933 L 91.38531,96.314 86.39078,106.56323 69.152997,127.02204 48.301347,127.35408 32.339394,97.283935 18.664189,86.235375 7.452485,84.654531 5.83666,87.822605 -12.61897,53.394926 l 6.2678702,-12.595612 3.4410438,3.039352 0.453697,7.328145 -2.065366,2.338179 13.039698,22.426635 30.016199,2.44774 20.466316,15.357878 -4.004198,-7.759995 6.070504,-18.09734 -27.807381,-4.966166 -3.469072,-1.726291 -26.126916,1.617805 -4.66581,-7.037699 31.355904,-1.942018 z m -18.396253,76.972652 -28.689614,-1.01815 -28.5007542,7.58383 1.3487959,1.97716 -32.4584607,4.57222 -12.742812,-7.54372 2.120159,-3.16269 3.549074,-0.91976 6.330713,1.63058 3.323146,4.06683 31.0394625,-8.70558 33.9464535,-16.45363 9.67619,1.2948 z m 20.85165,-0.33204 -12.082942,11.10565 -20.36947,6.39316 -14.96902,1.60539 -19.17201,-4.0434 16.574206,-11.5322 z M 97.22787,41.697958 102.29089,31.523541 96.18054,28.482888 Z"
     transform="rotate(21.02573,151.52944,53.933916)" /><text
     xml:space="preserve"
     style="font-weight:bold;font-size:3.98395px;font-family:'Chakra Petch';-inkscape-font-specification:'Chakra Petch Bold';opacity:1;fill:#ffffff;fill-opacity:1;fill-rule:nonzero;stroke:none;stroke-width:0.663994;stroke-dasharray:none;stroke-opacity:1"
     x="175.02815"
     y="117.08784"
     id="text70"><tspan
       sodipodi:role="line"
       id="tspan70"
       style="font-style:normal;font-variant:normal;font-weight:bold;font-stretch:normal;font-family:'Chakra Petch';-inkscape-font-specification:'Chakra Petch Bold';fill:#ffffff;fill-opacity:1;stroke-width:0.663994"
       x="175.02815"
       y="117.08784">TM</tspan></text><path
     id="path71"
     style="font-weight:bold;font-size:14.1111px;line-height:1.2;font-family:'Playfair Display';-inkscape-font-specification:'Playfair Display Bold';text-align:center;text-anchor:middle;mix-blend-mode:normal;fill:url(#linearGradient71);fill-opacity:0.583291;stroke:none;stroke-width:0.482453;stroke-linecap:square;stroke-dasharray:none;stroke-opacity:1;filter:url(#filter70)"
     d="m 143.53585,55.924739 -20.61128,-10.256656 -10.58465,3.549983 -5.32889,10.708682 7.57511,-2.545132 8.04828,4.005014 z m 0,0 -12.29679,10.025803 -17.4369,0.968104 -4.00874,8.055771 -4.22325,-12.152201 -5.73914,11.533106 -5.33081,-15.891584 -10.611206,-5.280382 5.280756,-10.611947 -7.828216,-3.895501 1.221069,-2.453801 2.674422,-5.374391 -3.789182,-11.29681 2.649602,-5.324515 4.373585,4.843527 7.02137,-4.292701 8.23369,7.052072 3.20839,0.747126 4.91095,20.612753 -0.89146,-19.675752 -0.41366,-9.129657 9.31761,12.533745 2.47592,-4.975491 5.05446,2.449764 13.65308,2.766722 9.78639,4.869934 -20.2551,-3.857777 -9.31401,3.124696 8.9252,4.441392 10.84726,1.484129 9.79664,-5.192431 -4.13281,8.305106 -7.23972,4.798205 -20.33609,-10.119717 z M 84.097465,14.226391 87.31014,7.7703539 95.49167,14.776845 87.62695,10.865412 Z M 82.562623,36.222107 65.79201,41.187527 66.697592,50.381418 50.38626,41.216284 48.199044,5.9032587 41.01242,-15.520573 l -12.388283,-6.164699 2.635098,-3.602479 8.408169,0.03325 7.954178,5.924616 9.049602,21.1927701 5.710596,26.6026599 z m -15.865031,14.159311 2.118915,-6.770634 10.77951,-3.505413 9.573753,2.466038 -8.41046,11.65994 13.74091,4.232389 3.55824,19.453648 5.84562,-3.99887 -2.3968,10.619933 L 91.38531,96.314 86.39078,106.56323 69.152997,127.02204 48.301347,127.35408 32.339394,97.283935 18.664189,86.235375 7.452485,84.654531 5.83666,87.822605 -12.61897,53.394926 l 6.2678702,-12.595612 3.4410438,3.039352 0.453697,7.328145 -2.065366,2.338179 13.039698,22.426635 30.016199,2.44774 20.466316,15.357878 -4.004198,-7.759995 6.070504,-18.09734 -27.807381,-4.966166 -3.469072,-1.726291 -26.126916,1.617805 -4.66581,-7.037699 31.355904,-1.942018 z m -18.396253,76.972652 -28.689614,-1.01815 -28.5007542,7.58383 1.3487959,1.97716 -32.4584607,4.57222 -12.742812,-7.54372 2.120159,-3.16269 3.549074,-0.91976 6.330713,1.63058 3.323146,4.06683 31.0394625,-8.70558 33.9464535,-16.45363 9.67619,1.2948 z m 20.85165,-0.33204 -12.082942,11.10565 -20.36947,6.39316 -14.96902,1.60539 -19.17201,-4.0434 16.574206,-11.5322 z M 97.22787,41.697958 102.29089,31.523541 96.18054,28.482888 Z"
     transform="rotate(-107.62199,104.47389,140.76912)" /></svg>
