<?xml version="1.0" encoding="UTF-8" standalone="no"?>
<!-- Created with Inkscape (http://www.inkscape.org/) -->

<svg
   width="256"
   height="256"
   viewBox="0 0 67.733332 67.733333"
   version="1.1"
   id="svg1"
   xml:space="preserve"
   inkscape:version="1.3.2 (1:1.3.2+202404261509+091e20ef0f)"
   sodipodi:docname="purenextfur.svg"
   xmlns:inkscape="http://www.inkscape.org/namespaces/inkscape"
   xmlns:sodipodi="http://sodipodi.sourceforge.net/DTD/sodipodi-0.dtd"
   xmlns="http://www.w3.org/2000/svg"
   xmlns:svg="http://www.w3.org/2000/svg"><sodipodi:namedview
     id="namedview1"
     pagecolor="#ffffff"
     bordercolor="#000000"
     borderopacity="0.25"
     inkscape:showpageshadow="2"
     inkscape:pageopacity="0.0"
     inkscape:pagecheckerboard="0"
     inkscape:deskcolor="#d1d1d1"
     inkscape:document-units="px"
     inkscape:zoom="4.0718557"
     inkscape:cx="131.14414"
     inkscape:cy="145.87943"
     inkscape:window-width="1849"
     inkscape:window-height="1011"
     inkscape:window-x="0"
     inkscape:window-y="0"
     inkscape:window-maximized="1"
     inkscape:current-layer="layer1-5"
     showgrid="false" /><defs
     id="defs1" /><g
     inkscape:label="Camada 1"
     inkscape:groupmode="layer"
     id="layer1"><g
       inkscape:label="Camada 1"
       id="layer1-5"
       transform="translate(-493.36902,123.62969)"><path
         id="path2"
         style="font-weight:bold;font-size:14.1111px;line-height:1.2;font-family:'Playfair Display';-inkscape-font-specification:'Playfair Display Bold';text-align:center;text-anchor:middle;fill:#f2f2f2;fill-opacity:1;stroke:none;stroke-width:0.730471;stroke-linecap:square;stroke-dasharray:none;stroke-opacity:1"
         d="m 530.18548,-118.10766 v 18.179324 l -6.23314,6.233924 h -9.44507 l 4.46413,-4.460053 v -7.098395 z m 0,0 -11.41355,5.16614 -6.81855,11.98642 h -7.10551 l 7.10551,7.260688 h -10.17239 l 9.35913,9.359168 v 9.359118 h 9.35995 v 6.904542 h 6.90457 l 6.65315,6.653182 h 4.69645 l -1.88569,-4.795808 5.50507,-3.453801 -2.08906,-8.301689 0.60044,-2.531079 -12.84448,-10.723252 13.5963,7.55229 6.30874,3.504189 -5.583,-10.996515 h 4.38845 l 0.0465,-4.434949 2.84714,-10.625484 v -8.63182 l -4.39861,15.676633 -5.48538,5.485275 v -7.872178 l 2.76668,-8.19051 7.11731,-5.09922 h -7.32525 l -5.93916,3.43015 v 17.936675 z m 8.56876,56.689258 h 5.69418 l -2.0748,-8.248854 -10e-4,6.936048 z"
         sodipodi:nodetypes="cccccccccccccccccccccccccccccccccccccccccccccc" /></g></g></svg>
