<?xml version="1.0" encoding="UTF-8" standalone="no"?>
<!-- Created with Inkscape (http://www.inkscape.org/) -->

<svg
   width="808.375"
   height="782.26569"
   viewBox="0 0 213.88255 206.97446"
   version="1.1"
   id="svg1"
   inkscape:export-filename="pathwire2.svg"
   inkscape:export-xdpi="96"
   inkscape:export-ydpi="96"
   xmlns:inkscape="http://www.inkscape.org/namespaces/inkscape"
   xmlns:sodipodi="http://sodipodi.sourceforge.net/DTD/sodipodi-0.dtd"
   xmlns="http://www.w3.org/2000/svg"
   xmlns:svg="http://www.w3.org/2000/svg">
  <sodipodi:namedview
     id="namedview1"
     pagecolor="#000000"
     bordercolor="#000000"
     borderopacity="0.25"
     inkscape:showpageshadow="2"
     inkscape:pageopacity="0.0"
     inkscape:pagecheckerboard="0"
     inkscape:deskcolor="#d1d1d1"
     inkscape:document-units="mm" />
  <defs
     id="defs1" />
  <g
     inkscape:label="Camada 1"
     inkscape:groupmode="layer"
     id="layer1"
     transform="translate(-28.525391,-27.437601)">
    <path
       id="path42"
       style="font-weight:bold;font-size:14.1111px;line-height:1.2;font-family:'Playfair Display';-inkscape-font-specification:'Playfair Display Bold';text-align:center;text-anchor:middle;fill:#000000;fill-opacity:1;stroke:none;stroke-width:1.60417;stroke-linecap:square;stroke-dasharray:none;stroke-opacity:1"
       d="m 29.548584,27.437602 c -0.564742,8.48e-4 -1.022345,0.458451 -1.023193,1.023193 V 233.38679 c -2.92e-4,0.56555 0.457644,1.02441 1.023193,1.02526 H 241.38475 c 0.56555,-8.5e-4 1.02348,-0.45971 1.02319,-1.02526 V 52.172009 c 3.6e-4,-0.271536 -0.10707,-0.532114 -0.29869,-0.724503 L 218.39856,27.736292 c -0.19239,-0.191623 -0.45297,-0.299051 -0.72451,-0.29869 z M 47.382953,45.741501 H 204.14443 L 223.5509,65.147535 V 216.1066 H 47.382953 Z m 16.578887,9.211402 c -5.028839,0 -9.077482,4.048644 -9.077482,9.077483 0,5.028839 4.048643,9.076965 9.077482,9.076965 5.028839,0 9.077482,-4.048126 9.077482,-9.076965 0,-5.028839 -4.048643,-9.077483 -9.077482,-9.077483 z m 77.55459,12.78043 v 39.923147 l -13.68857,13.69012 h -20.74189 l 9.80354,-9.79475 V 95.963652 Z m 0,0 -25.06514,11.345044 -14.97376,26.323463 H 85.873311 L 101.47753,121.3466 H 79.137805 l 20.553268,20.55378 v 20.55327 h 20.555337 v 15.1629 h 15.1629 l 14.61099,14.61099 h 10.31358 l -4.14083,-10.53217 12.0897,-7.58455 -4.58783,-18.23145 1.31826,-5.55831 -28.20706,-23.54895 29.85813,16.58503 13.85496,7.69566 -12.26075,-24.14943 h 9.63714 l 0.1018,-9.73946 6.25285,-23.334495 V 74.873466 l -9.65987,34.427354 -12.0463,12.04578 v -17.28784 l 6.0756,-17.987011 15.63057,-11.198283 h -16.08687 l -13.04313,7.532874 v 39.39036 z m 18.81745,124.494207 h 12.50518 l -4.55631,-18.11517 -0.002,15.23214 z m -32.50602,-41.60883 h 19.70732 v 11.83494 z"
       inkscape:export-filename="chipsetwire.svg"
       inkscape:export-xdpi="96"
       inkscape:export-ydpi="96"
       sodipodi:nodetypes="cccccccccccccccccssssscccccccccccccccccccccccccccccccccccccccccccccccccc" />
  </g>
</svg>
