<?xml version="1.0" encoding="UTF-8" standalone="no"?>
<!-- Created with Inkscape (http://www.inkscape.org/) -->

<svg
   width="728.4649"
   height="566.33405"
   viewBox="0 0 192.73967 149.84255"
   version="1.1"
   id="svg1"
   xml:space="preserve"
   inkscape:version="1.3.2 (1:1.3.2+202404261509+091e20ef0f)"
   sodipodi:docname="guara.svg"
   inkscape:export-filename="guara.svg"
   inkscape:export-xdpi="96"
   inkscape:export-ydpi="96"
   xmlns:inkscape="http://www.inkscape.org/namespaces/inkscape"
   xmlns:sodipodi="http://sodipodi.sourceforge.net/DTD/sodipodi-0.dtd"
   xmlns="http://www.w3.org/2000/svg"
   xmlns:svg="http://www.w3.org/2000/svg"><sodipodi:namedview
     id="namedview1"
     pagecolor="#ffffff"
     bordercolor="#000000"
     borderopacity="0.25"
     inkscape:showpageshadow="2"
     inkscape:pageopacity="0.0"
     inkscape:pagecheckerboard="0"
     inkscape:deskcolor="#d1d1d1"
     inkscape:document-units="px"
     inkscape:zoom="0.45254834"
     inkscape:cx="840.79416"
     inkscape:cy="59.662135"
     inkscape:window-width="1854"
     inkscape:window-height="1011"
     inkscape:window-x="0"
     inkscape:window-y="0"
     inkscape:window-maximized="1"
     inkscape:current-layer="svg1"
     showgrid="false"
     showguides="false" /><defs
     id="defs1" /><path
     id="path1"
     style="font-weight:bold;font-size:14.1111px;line-height:1.2;font-family:'Playfair Display';-inkscape-font-specification:'Playfair Display Bold';text-align:center;text-anchor:middle;fill:#f9f9f9;fill-opacity:0.583291;stroke:none;stroke-width:0.482453;stroke-linecap:square;stroke-dasharray:none;stroke-opacity:1"
     d="M 24.642423,0 38.84414,16.27911 v 8.98964 l 5.653402,5.64771 H 32.535998 l -7.893575,-7.8946 z m 0,0 -7.844998,31.1764 V 8.4615 L 9.2764365,4.11758 H 0 l 9.0128867,6.45749 3.5041793,10.37249 v 9.9689 L 5.5696861,23.97012 0,4.11758 V 15.0487 l 3.6054649,13.45602 0.058394,5.6162 H 9.2216591 L 2.1512897,48.04668 10.140466,43.60923 27.359053,34.04547 11.092346,47.625 l 0.760677,3.20549 -2.6453165,10.51306 6.9711515,4.37389 -2.387968,6.07301 h 5.94744 l 8.425842,-8.4248 h 6.003251 2.740401 v -8.74417 h 11.85354 V 42.76897 L 60.613871,30.91646 H 47.731453 l 8.9979,-9.19478 h -8.9979 L 39.096321,6.54224 Z m 24.118941,54.62148 -9.116756,2.58795 8.950875,11.79773 8.950875,11.79773 9.801468,-0.18293 16.479098,30.06741 12.236979,30.55834 6.548957,-4.56148 -11.596194,-28.85767 0.297139,-6.68124 -5.138704,-23.2053 15.465209,-4.4881 5.15627,-6.19291 -4.63176,25.16539 11.18124,27.96315 -10.7332,16.29668 -3.535705,5.36867 -3.013252,-0.80719 -6.358785,3.6711 -1.188041,4.43435 h 14.068913 l 22.60017,-31.86059 -3.55585,-0.0351 -3.57963,-10.74198 3.79873,-17.16536 19.81016,-27.68668 -9.58701,-18.52032 -16.81189,-4.75423 -20.584796,0.17105 -15.637805,-5.70663 -16.026929,0.16485 -10.120829,9.7932 z m 83.311196,-11.27839 25.44289,43.20925 17.709,9.7007 -4.92166,-18.96576 -8.10597,-12.68605 -14.79858,-15.38821 z m 9.58701,18.52032 -10.00559,17.32969 3.15175,9.23975 29.85399,23.06112 21.62245,23.91069 -2.16059,4.78679 1.36064,6.39444 2.40451,2.76779 3.77599,0.48886 1.07694,-14.76913 -18.55391,-27.02212 -1.16943,2.08824 -19.48667,-22.13766 z m -74.311744,18.75855 -10.62364,3.9703 -8.128703,-15.5851 -1.741496,24.30601 -21.272603,16.96434 -14.941723,17.54363 -1.7606162,9.76065 3.7160522,7.54269 4.399215,0.75396 v -13.8374 l 15.978869,-15.97835 30.63999,-17.6904 z M 13.79089,71.79045 9.2097739,70.12802 9.2077039,61.34458 6.5799573,71.79045 Z m 7.380428,-23.99388 h 11.36468 l -11.36468,6.82491 z" /></svg>
